<mxfile host="app.diagrams.net" modified="2023-11-02T08:02:46.073Z" agent="Mozilla/5.0 (Macintosh; Intel Mac OS X 10_15_7) AppleWebKit/605.1.15 (KHTML, like Gecko) Version/17.0 Safari/605.1.15" etag="6xYc4oLwqHDT5WJSDufE" version="22.0.8" type="github">
  <diagram name="第 1 页" id="Wb7mJd64eRIS2XYEZOSo">
    <mxGraphModel dx="658" dy="466" grid="1" gridSize="10" guides="1" tooltips="1" connect="1" arrows="1" fold="1" page="1" pageScale="1" pageWidth="827" pageHeight="1169" background="none" math="0" shadow="0">
      <root>
        <mxCell id="0" />
        <mxCell id="1" parent="0" />
        <mxCell id="RGMPA34h6z5fSCH6lq9s-12" value="" style="ellipse;labelBackgroundColor=none;rounded=1;sketch=1;curveFitting=1;jiggle=2;" parent="1" vertex="1">
          <mxGeometry x="372" y="120" width="14" height="14" as="geometry" />
        </mxCell>
        <mxCell id="yG8ObliK4m0wNtMTz7EU-1" style="edgeStyle=orthogonalEdgeStyle;rounded=0;sketch=1;hachureGap=4;jiggle=2;curveFitting=1;orthogonalLoop=1;jettySize=auto;html=1;exitX=0.5;exitY=1;exitDx=0;exitDy=0;fontFamily=Architects Daughter;fontSource=https%3A%2F%2Ffonts.googleapis.com%2Fcss%3Ffamily%3DArchitects%2BDaughter;fontSize=16;" edge="1" parent="1" source="RGMPA34h6z5fSCH6lq9s-13">
          <mxGeometry relative="1" as="geometry">
            <mxPoint x="378.55172413793116" y="290" as="targetPoint" />
          </mxGeometry>
        </mxCell>
        <mxCell id="yG8ObliK4m0wNtMTz7EU-2" value="&lt;font style=&quot;font-size: 12px;&quot;&gt;账户存在&lt;/font&gt;" style="edgeLabel;html=1;align=center;verticalAlign=middle;resizable=0;points=[];fontSize=20;fontFamily=Architects Daughter;labelBackgroundColor=none;" vertex="1" connectable="0" parent="yG8ObliK4m0wNtMTz7EU-1">
          <mxGeometry x="-0.1795" relative="1" as="geometry">
            <mxPoint as="offset" />
          </mxGeometry>
        </mxCell>
        <mxCell id="RGMPA34h6z5fSCH6lq9s-13" value="登陆" style="rounded=1;absoluteArcSize=1;arcSize=14;whiteSpace=wrap;strokeWidth=2;labelBackgroundColor=none;sketch=1;curveFitting=1;jiggle=2;" parent="1" vertex="1">
          <mxGeometry x="350" y="184" width="57" height="34" as="geometry" />
        </mxCell>
        <mxCell id="RGMPA34h6z5fSCH6lq9s-17" value="" style="curved=1;startArrow=none;;exitX=0.49135044642857145;exitY=1;entryX=0.5066474780701754;entryY=0;labelBackgroundColor=none;fontColor=default;sketch=1;curveFitting=1;jiggle=2;" parent="1" source="RGMPA34h6z5fSCH6lq9s-12" target="RGMPA34h6z5fSCH6lq9s-13" edge="1">
          <mxGeometry relative="1" as="geometry">
            <Array as="points" />
          </mxGeometry>
        </mxCell>
        <mxCell id="yG8ObliK4m0wNtMTz7EU-3" value="" style="ellipse;labelBackgroundColor=none;rounded=1;sketch=1;curveFitting=1;jiggle=2;fillColor=#000000;" vertex="1" parent="1">
          <mxGeometry x="371.5" y="290" width="14" height="14" as="geometry" />
        </mxCell>
        <mxCell id="yG8ObliK4m0wNtMTz7EU-5" value="" style="curved=1;endArrow=classic;html=1;rounded=0;sketch=1;hachureGap=4;jiggle=2;curveFitting=1;fontFamily=Architects Daughter;fontSource=https%3A%2F%2Ffonts.googleapis.com%2Fcss%3Ffamily%3DArchitects%2BDaughter;fontSize=20;fontColor=default;exitX=0.5;exitY=1;exitDx=0;exitDy=0;entryX=1;entryY=0.5;entryDx=0;entryDy=0;" edge="1" parent="1" source="RGMPA34h6z5fSCH6lq9s-13" target="RGMPA34h6z5fSCH6lq9s-13">
          <mxGeometry width="50" height="50" relative="1" as="geometry">
            <mxPoint x="410" y="290" as="sourcePoint" />
            <mxPoint x="460" y="240" as="targetPoint" />
            <Array as="points">
              <mxPoint x="460" y="270" />
              <mxPoint x="540" y="190" />
            </Array>
          </mxGeometry>
        </mxCell>
        <mxCell id="yG8ObliK4m0wNtMTz7EU-7" value="账户错误" style="edgeLabel;html=1;align=center;verticalAlign=middle;resizable=0;points=[];fontSize=12;fontFamily=Architects Daughter;fontColor=default;labelBackgroundColor=none;" vertex="1" connectable="0" parent="yG8ObliK4m0wNtMTz7EU-5">
          <mxGeometry x="-0.2063" y="1" relative="1" as="geometry">
            <mxPoint as="offset" />
          </mxGeometry>
        </mxCell>
      </root>
    </mxGraphModel>
  </diagram>
</mxfile>
